<svg xmlns="http://www.w3.org/2000/svg" width="1368" height="480.162" viewBox="0 0 1368 480.162">
  <g id="Group_51" data-name="Group 51" transform="translate(388.824 1.5)" opacity="0.61">
    <path id="Rectangle_28" data-name="Rectangle 28" d="M7,0H997.66a0,0,0,0,1,0,0V20.808a0,0,0,0,1,0,0H7a7,7,0,0,1-7-7V7A7,7,0,0,1,7,0Z" transform="translate(-19.484 418.482)" fill="#afb6e4" stroke="#afb6e4" stroke-width="2"/>
    <path id="Rectangle_209" data-name="Rectangle 209" d="M2.35,0H1366a0,0,0,0,1,0,0V4.7a0,0,0,0,1,0,0H2.35A2.35,2.35,0,0,1,0,2.35v0A2.35,2.35,0,0,1,2.35,0Z" transform="translate(-387.824 472.962)" fill="#afb6e4" stroke="#afb6e4" stroke-width="2"/>
    <path id="Path_45" data-name="Path 45" d="M1000.482,708.8s-63.536,0-156.054-144.442c0,0-124.1-187.733-246.718-263.533,0,0-43.844-26.38-10.4,4.46,0,0,304.681,297.992,298.734,403.515Z" transform="translate(-22.306 -290.315)" fill="#afb6e4" stroke="#afb6e4" stroke-width="3"/>
    <line id="Line_1" data-name="Line 1" y1="371.409" x2="532.373" transform="translate(65.213 47.774)" fill="none" stroke="#afb6e4" stroke-width="2"/>
    <line id="Line_17" data-name="Line 17" y1="404.665" x2="579.723" transform="translate(-4.684 23.536)" fill="none" stroke="#afb6e4" stroke-width="2"/>
    <line id="Line_2" data-name="Line 2" y1="350.326" x2="499.048" transform="translate(121.582 68.857)" fill="none" stroke="#afb6e4" stroke-width="2"/>
    <line id="Line_3" data-name="Line 3" y1="315.452" x2="461.621" transform="translate(189.224 103.731)" fill="none" stroke="#afb6e4" stroke-width="2"/>
    <line id="Line_4" data-name="Line 4" y1="287.852" x2="422.651" transform="translate(250.102 131.331)" fill="none" stroke="#afb6e4" stroke-width="2"/>
    <line id="Line_5" data-name="Line 5" y1="261.808" x2="383.893" transform="translate(315.489 157.375)" fill="none" stroke="#afb6e4" stroke-width="2"/>
    <line id="Line_6" data-name="Line 6" y1="238.265" x2="346.381" transform="translate(372.84 180.216)" fill="none" stroke="#afb6e4" stroke-width="2"/>
    <line id="Line_7" data-name="Line 7" x1="301.801" y2="208.245" transform="translate(443.507 211.28)" fill="none" stroke="#afb6e4" stroke-width="2"/>
    <line id="Line_8" data-name="Line 8" x1="254.159" y2="182.52" transform="translate(513.074 238.564)" fill="none" stroke="#afb6e4" stroke-width="2"/>
    <line id="Line_9" data-name="Line 9" x1="206.16" y2="154.888" transform="translate(581.031 264.637)" fill="none" stroke="#afb6e4" stroke-width="2"/>
    <line id="Line_10" data-name="Line 10" x1="170.979" y2="127.936" transform="translate(635.604 291.589)" fill="none" stroke="#afb6e4" stroke-width="2"/>
    <line id="Line_11" data-name="Line 11" x1="125.451" y2="101.097" transform="translate(698.908 318.428)" fill="none" stroke="#afb6e4" stroke-width="2"/>
    <line id="Line_12" data-name="Line 12" x1="94.898" y2="74.431" transform="translate(745.976 346.652)" fill="none" stroke="#afb6e4" stroke-width="2"/>
    <line id="Line_13" data-name="Line 13" x1="54.374" y2="44.94" transform="translate(800.394 376.143)" fill="none" stroke="#afb6e4" stroke-width="2"/>
    <line id="Line_14" data-name="Line 14" x2="287.436" y2="204.5" transform="translate(690.739 109.2)" fill="none" stroke="#afb6e4" stroke-width="2"/>
    <rect id="Rectangle_30" data-name="Rectangle 30" width="139.056" height="13.562" transform="translate(820.953 441.472)" fill="none" stroke="#afb6e4" stroke-width="2"/>
    <path id="Path_53" data-name="Path 53" d="M606.394,512.329h79.142l16.68-13.562H588.964Z" transform="translate(244.893 -41.55)" fill="#afb6e4" stroke="#afb6e4" stroke-width="2"/>
    <circle id="Ellipse_1" data-name="Ellipse 1" cx="16.372" cy="16.372" r="16.372" transform="translate(879.387 386.992)" fill="#fff"/>
  </g>
</svg>
