<svg xmlns="http://www.w3.org/2000/svg" xmlns:xlink="http://www.w3.org/1999/xlink" width="640.09" height="415.5" viewBox="0 0 640.09 415.5">
  <defs>
    <clipPath id="clip-path">
      <rect id="Rectangle_3" data-name="Rectangle 3" width="640.09" height="415.5" fill="none"/>
    </clipPath>
  </defs>
  <g id="Group_2" data-name="Group 2" opacity="0.26" clip-path="url(#clip-path)">
    <path id="Path_1" data-name="Path 1" d="M570.786,561h0a2.445,2.445,0,0,1-2.437-2.453V369.659a2.437,2.437,0,1,1,4.873,0V558.547A2.445,2.445,0,0,1,570.786,561" transform="translate(-229.339 -146.701)" fill="#0b182f"/>
    <path id="Path_2" data-name="Path 2" d="M542.906,297.8l2.181,12.986L541.5,322.831s-2.07,4.817-6.4,3.35l-28.3-8.534Z" transform="translate(-204.501 -118.973)" fill="#0b182f"/>
    <path id="Path_3" data-name="Path 3" d="M552.957,272.694l-11.594,6.1-12.485.29s-5.191-.494-5.143-5.1l-.684-29.736Z" transform="translate(-211.06 -97.58)" fill="#0b182f"/>
    <path id="Path_4" data-name="Path 4" d="M571.674,270.374l-9.346-9.216L558.2,249.294s-1.138-5.122,3.224-6.5l27.88-9.843Z" transform="translate(-225.188 -93.065)" fill="#0b182f"/>
    <path id="Path_5" data-name="Path 5" d="M579.783,290.184l5.818-11.8,9.931-7.621s4.487-2.673,7.136,1.078L620.582,295.5Z" transform="translate(-233.952 -107.803)" fill="#0b182f"/>
    <path id="Path_6" data-name="Path 6" d="M571.41,305.282l12.942,1.925,10.27,7.154s3.911,3.47,1.186,7.165L579,345.988Z" transform="translate(-230.574 -121.962)" fill="#0b182f"/>
    <path id="Path_7" data-name="Path 7" d="M556.418,213.239l-9.513,2.915s-5.788,2.453-3.655,8.279l2.894,8.586-17.666-16.865s-7.919-8.433,0-18.4l28.7-27.445Z" transform="translate(-211.83 -68.04)" fill="#0b182f"/>
    <path id="Path_8" data-name="Path 8" d="M494.637,269.3l-.121,10.01s.57,6.3,6.731,6.014l9-.177-21.315,11.844s-10.381,5.045-17.417-5.57l-17.292-35.849Z" transform="translate(-183.288 -102.103)" fill="#0b182f"/>
    <path id="Path_9" data-name="Path 9" d="M615.567,262.043l-5.8-8.13s-4.169-4.728-8.962-.821l-7.145,5.52,10.179-22.265s5.383-10.261,17.3-5.918l35.046,18.531Z" transform="translate(-239.552 -91.629)" fill="#0b182f"/>
    <path id="Path_10" data-name="Path 10" d="M604.506,330.947l5.912-8.049s3.194-5.442-1.967-8.84l-7.407-5.158,24.17,2.94s11.352,2.018,10.894,14.772l-6.795,39.26Z" transform="translate(-242.532 -123.407)" fill="#0b182f"/>
    <path id="Path_11" data-name="Path 11" d="M521.516,336.4l9.355,3.393s6.1,1.52,7.848-4.433l2.783-8.623,4.135,24.154s1.335,11.526-10.933,14.743L495.4,370.34Z" transform="translate(-199.901 -130.533)" fill="#0b182f"/>
    <path id="Path_12" data-name="Path 12" d="M575.345,297.029a2.551,2.551,0,1,1-2.551-2.568,2.56,2.56,0,0,1,2.551,2.568" transform="translate(-230.103 -117.639)" fill="#0b182f"/>
    <path id="Path_13" data-name="Path 13" d="M866.672,579.936h0a2.087,2.087,0,0,1-2.08-2.094V416.623a2.08,2.08,0,1,1,4.16,0V577.842a2.087,2.087,0,0,1-2.08,2.094" transform="translate(-348.878 -165.606)" fill="#0b182f"/>
    <path id="Path_14" data-name="Path 14" d="M842.877,355.583l1.861,11.085-3.059,10.279s-1.767,4.112-5.465,2.86l-24.157-7.285Z" transform="translate(-327.679 -142.057)" fill="#0b182f"/>
    <path id="Path_15" data-name="Path 15" d="M851.455,334.153l-9.9,5.207-10.656.247s-4.431-.422-4.39-4.349l-.584-25.38Z" transform="translate(-333.277 -123.798)" fill="#0b182f"/>
    <path id="Path_16" data-name="Path 16" d="M867.431,332.174l-7.977-7.866-3.526-10.126s-.971-4.372,2.751-5.547l23.8-8.4Z" transform="translate(-345.335 -119.945)" fill="#0b182f"/>
    <path id="Path_17" data-name="Path 17" d="M874.352,349.082l4.966-10.068,8.477-6.505s3.83-2.281,6.091.921l15.29,20.187Z" transform="translate(-352.816 -132.524)" fill="#0b182f"/>
    <path id="Path_18" data-name="Path 18" d="M867.205,361.968l11.046,1.644,8.765,6.105s3.339,2.962,1.013,6.116l-14.347,20.878Z" transform="translate(-349.932 -144.608)" fill="#0b182f"/>
    <path id="Path_19" data-name="Path 19" d="M854.41,283.407l-8.119,2.488s-4.939,2.093-3.12,7.066l2.469,7.328-15.078-14.394s-6.759-7.2,0-15.7l24.5-23.425Z" transform="translate(-333.934 -98.584)" fill="#0b182f"/>
    <path id="Path_20" data-name="Path 20" d="M801.677,331.258l-.1,8.544s.487,5.373,5.745,5.132l7.685-.151-18.193,10.109s-8.86,4.306-14.866-4.754l-14.759-30.6Z" transform="translate(-309.573 -127.658)" fill="#0b182f"/>
    <path id="Path_21" data-name="Path 21" d="M904.894,325.064l-4.951-6.939s-3.559-4.035-7.65-.7l-6.1,4.712,8.688-19a11.7,11.7,0,0,1,14.77-5.051L939.565,313.9Z" transform="translate(-357.595 -118.719)" fill="#0b182f"/>
    <path id="Path_22" data-name="Path 22" d="M895.453,383.874,900.5,377s2.727-4.645-1.679-7.546l-6.322-4.4,20.63,2.509s9.689,1.722,9.3,12.608l-5.8,33.509Z" transform="translate(-360.138 -145.842)" fill="#0b182f"/>
    <path id="Path_23" data-name="Path 23" d="M824.62,388.527l7.984,2.9s5.2,1.3,6.7-3.784l2.375-7.36,3.529,20.616a11.8,11.8,0,0,1-9.331,12.584l-33.55,4.018Z" transform="translate(-323.752 -151.924)" fill="#0b182f"/>
    <path id="Path_24" data-name="Path 24" d="M870.563,354.925a2.177,2.177,0,1,1-2.177-2.192,2.184,2.184,0,0,1,2.177,2.192" transform="translate(-349.53 -140.919)" fill="#0b182f"/>
    <path id="Path_25" data-name="Path 25" d="M231.811,520.9h0a3.243,3.243,0,0,1-3.232-3.254V267.09a3.232,3.232,0,1,1,6.465,0V517.65a3.243,3.243,0,0,1-3.232,3.254" transform="translate(-92.236 -105.404)" fill="#0b182f"/>
    <path id="Path_26" data-name="Path 26" d="M194.83,169.119l2.892,17.226-4.755,15.976s-2.746,6.39-8.493,4.444l-37.543-11.321Z" transform="translate(-59.289 -67.564)" fill="#0b182f"/>
    <path id="Path_27" data-name="Path 27" d="M208.162,135.812l-15.38,8.092-16.561.384s-6.886-.655-6.823-6.759l-.907-39.445Z" transform="translate(-67.989 -39.185)" fill="#0b182f"/>
    <path id="Path_28" data-name="Path 28" d="M232.99,132.736l-12.4-12.225-5.48-15.738s-1.51-6.795,4.276-8.621L256.371,83.1Z" transform="translate(-86.73 -33.197)" fill="#0b182f"/>
    <path id="Path_29" data-name="Path 29" d="M243.746,159.015l7.718-15.648,13.174-10.111s5.952-3.545,9.466,1.43l23.763,31.375Z" transform="translate(-98.356 -52.747)" fill="#0b182f"/>
    <path id="Path_30" data-name="Path 30" d="M232.638,179.04l17.167,2.554,13.622,9.49s5.188,4.6,1.574,9.505l-22.3,32.447Z" transform="translate(-93.873 -71.527)" fill="#0b182f"/>
    <path id="Path_31" data-name="Path 31" d="M212.753,56.946l-12.619,3.866s-7.676,3.254-4.848,10.982l3.838,11.389L175.69,60.812s-10.5-11.185,0-24.405L213.763,0Z" transform="translate(-69.01)" fill="#0b182f"/>
    <path id="Path_32" data-name="Path 32" d="M130.8,131.314l-.16,13.278s.756,8.35,8.929,7.977l11.944-.235-28.274,15.711s-13.77,6.693-23.1-7.389L77.2,113.1Z" transform="translate(-31.15 -45.185)" fill="#0b182f"/>
    <path id="Path_33" data-name="Path 33" d="M291.214,121.685l-7.7-10.785s-5.53-6.271-11.889-1.089l-9.477,7.322,13.5-29.534s7.141-13.612,22.953-7.851l46.489,24.58Z" transform="translate(-105.783 -31.292)" fill="#0b182f"/>
    <path id="Path_34" data-name="Path 34" d="M276.541,213.086l7.843-10.677s4.237-7.22-2.61-11.728l-9.825-6.841,32.062,3.9s15.058,2.677,14.45,19.6l-9.013,52.079Z" transform="translate(-109.736 -73.445)" fill="#0b182f"/>
    <path id="Path_35" data-name="Path 35" d="M166.455,220.318l12.409,4.5s8.085,2.016,10.411-5.881l3.692-11.438,5.485,32.039s1.772,15.29-14.5,19.557l-52.143,6.245Z" transform="translate(-53.187 -82.898)" fill="#0b182f"/>
    <path id="Path_36" data-name="Path 36" d="M237.859,168.094a3.384,3.384,0,1,1-3.384-3.407,3.4,3.4,0,0,1,3.384,3.407" transform="translate(-93.249 -65.793)" fill="#0b182f"/>
    <path id="Path_37" data-name="Path 37" d="M0,663.85s117.659-89.231,220.915,0Z" transform="translate(0 -249.367)" fill="#0b182f"/>
    <path id="Path_38" data-name="Path 38" d="M334.948,669.393s91.58-69.453,171.949,0Z" transform="translate(-135.157 -255.094)" fill="#0b182f"/>
    <path id="Path_39" data-name="Path 39" d="M777.757,670.15s93.829-71.159,176.171,0Z" transform="translate(-313.838 -255.094)" fill="#0b182f"/>
    <path id="Path_40" data-name="Path 40" d="M576.519,673.162s80.4-60.974,150.957,0Z" transform="translate(-232.635 -258.105)" fill="#0b182f"/>
  </g>
</svg>
